<svg width="42" height="42" viewBox="0 0 42 42" fill="none" xmlns="http://www.w3.org/2000/svg">
<circle cx="32" cy="28" r="3" fill="white"/>
<path d="M2 12C2 8.68629 4.68629 6 8 6H32C35.3137 6 38 8.68629 38 12V29C38 32.3137 35.3137 35 32 35H8C4.68629 35 2 32.3137 2 29V12Z" fill="#2563EB"/>
<path fill-rule="evenodd" clip-rule="evenodd" d="M9 10.5C9 11.3284 8.32843 12 7.5 12C6.67157 12 6 11.3284 6 10.5C6 9.67157 6.67157 9 7.5 9C8.32843 9 9 9.67157 9 10.5ZM13 10.5C13 11.3284 12.3284 12 11.5 12C10.6716 12 10 11.3284 10 10.5C10 9.67157 10.6716 9 11.5 9C12.3284 9 13 9.67157 13 10.5ZM15.5 12C16.3284 12 17 11.3284 17 10.5C17 9.67157 16.3284 9 15.5 9C14.6716 9 14 9.67157 14 10.5C14 11.3284 14.6716 12 15.5 12Z" fill="white"/>
<path d="M5 17C5 15.3431 6.34315 14 8 14H32C33.6569 14 35 15.3431 35 17V29C35 30.6569 33.6569 32 32 32H8C6.34315 32 5 30.6569 5 29V17Z" fill="white"/>
<path fill-rule="evenodd" clip-rule="evenodd" d="M10 19C10 18.4477 10.4477 18 11 18H25C25.5523 18 26 18.4477 26 19C26 19.5523 25.5523 20 25 20H11C10.4477 20 10 19.5523 10 19ZM10 23C10 22.4477 10.4477 22 11 22H25C25.5523 22 26 22.4477 26 23C26 23.5523 25.5523 24 25 24H11C10.4477 24 10 23.5523 10 23ZM11 26C10.4477 26 10 26.4477 10 27C10 27.5523 10.4477 28 11 28H20C20.5523 28 21 27.5523 21 27C21 26.4477 20.5523 26 20 26H11Z" fill="#2563EB"/>
<path fill-rule="evenodd" clip-rule="evenodd" d="M31.5606 19C33.1076 18.9998 34.6259 19.4186 35.9539 20.2122C37.2819 21.0057 38.3702 22.1442 39.103 23.5067C39.8358 24.8692 40.1857 26.4047 40.1157 27.9502C40.0711 28.9345 39.8571 29.8995 39.4872 30.8039L40.4125 31.7298L40.4243 31.742C41.0277 32.3668 41.3616 33.2035 41.354 34.072C41.3465 34.9406 40.9981 35.7714 40.384 36.3855C39.7698 36.9997 38.939 37.3481 38.0705 37.3556C37.2019 37.3632 36.3652 37.0293 35.7404 36.4259L35.7282 36.414L34.802 35.4885C34.0902 35.7794 33.3401 35.9741 32.5715 36.0653C31.2458 36.2227 29.9016 36.0678 28.6464 35.6131C27.3911 35.1584 26.2596 34.4166 25.3422 33.4467C24.4247 32.4768 23.7468 31.3059 23.3624 30.0273C22.9781 28.7488 22.8981 27.3981 23.1288 26.0832C23.3594 24.7682 23.8944 23.5254 24.6909 22.454C25.4874 21.3826 26.5234 20.5122 27.7162 19.9125C28.9089 19.3128 30.2256 19.0003 31.5606 19Z" fill="white"/>
<path fill-rule="evenodd" clip-rule="evenodd" d="M27.6234 27.5625C27.6234 26.5182 28.0383 25.5167 28.7767 24.7783C29.5151 24.0398 30.5166 23.625 31.5609 23.625C32.6052 23.625 33.6067 24.0398 34.3452 24.7783C35.0836 25.5167 35.4984 26.5182 35.4984 27.5625C35.4984 28.6068 35.0836 29.6083 34.3452 30.3467C33.6067 31.0852 32.6052 31.5 31.5609 31.5C30.5166 31.5 29.5151 31.0852 28.7767 30.3467C28.0383 29.6083 27.6234 28.6068 27.6234 27.5625ZM31.5609 21C30.5377 21.0002 29.5287 21.2397 28.6146 21.6994C27.7004 22.159 26.9064 22.826 26.2959 23.6472C25.6855 24.4683 25.2755 25.4209 25.0987 26.4287C24.9219 27.4365 24.9832 28.4717 25.2778 29.4516C25.5723 30.4315 26.0919 31.329 26.7951 32.0723C27.4982 32.8156 28.3655 33.3842 29.3275 33.7327C30.2896 34.0812 31.3197 34.1999 32.3358 34.0793C33.3519 33.9587 34.3257 33.6022 35.1795 33.0383L37.1299 34.9873C37.3774 35.2264 37.7089 35.3587 38.0531 35.3557C38.3972 35.3527 38.7264 35.2147 38.9697 34.9713C39.2131 34.728 39.3511 34.3988 39.3541 34.0547C39.3571 33.7105 39.2248 33.379 38.9857 33.1314L37.0367 31.1811C37.6905 30.1919 38.0641 29.0441 38.1177 27.8596C38.1714 26.6752 37.9032 25.4983 37.3416 24.454C36.7799 23.4098 35.9459 22.5372 34.928 21.929C33.9102 21.3209 32.7466 20.9998 31.5609 21Z" fill="#FF64C8"/>
</svg>
